<?xml version="1.0" encoding="UTF-8"?>
<svg version="1.1" xmlns="http://www.w3.org/2000/svg" width="348" height="165">
<path d="M0 0 C1.02802734 0.00322266 2.05605469 0.00644531 3.11523438 0.00976562 C4.72301758 0.02233398 4.72301758 0.02233398 6.36328125 0.03515625 C7.9884668 0.04192383 7.9884668 0.04192383 9.64648438 0.04882812 C12.3229721 0.06061882 14.99934902 0.07707562 17.67578125 0.09765625 C21.83931127 14.81391214 25.00909615 29.70396567 28.125 44.66796875 C28.39846095 45.9773884 28.67197745 47.28679645 28.94555664 48.59619141 C29.37869376 50.67310632 29.8087763 52.75066836 30.23217773 54.82958984 C31.49565903 60.84854122 33.53066719 66.31958665 35.75 72.05859375 C36.67578125 75.09765625 36.67578125 75.09765625 35.67578125 78.09765625 C31.40500469 78.15560437 27.13432889 78.19123499 22.86328125 78.22265625 C21.64833984 78.23941406 20.43339844 78.25617188 19.18164062 78.2734375 C18.01826172 78.27988281 16.85488281 78.28632812 15.65625 78.29296875 C14.04592896 78.3086792 14.04592896 78.3086792 12.40307617 78.32470703 C9.67578125 78.09765625 9.67578125 78.09765625 6.67578125 76.09765625 C5.5078125 72.9453125 5.5078125 72.9453125 4.48828125 69.16015625 C4.14410156 67.91363281 3.79992187 66.66710937 3.4453125 65.3828125 C2.67578125 62.09765625 2.67578125 62.09765625 2.67578125 59.09765625 C1.55300781 59.18144531 0.43023437 59.26523438 -0.7265625 59.3515625 C-2.23825271 59.45484568 -3.74997319 59.55768647 -5.26171875 59.66015625 C-6.36483398 59.74426758 -6.36483398 59.74426758 -7.49023438 59.83007812 C-12.90684426 60.1848779 -17.94286273 59.81908928 -23.32421875 59.09765625 C-23.78477661 59.83870605 -23.78477661 59.83870605 -24.25463867 60.59472656 C-25.66450678 62.85157459 -27.08792915 65.09956741 -28.51171875 67.34765625 C-28.99447266 68.12496094 -29.47722656 68.90226562 -29.97460938 69.703125 C-33.09333955 74.60099654 -36.00130528 78.43619952 -41.32421875 81.09765625 C-47.14530826 81.6683513 -50.82141286 80.66423517 -55.32421875 77.09765625 C-58.62465348 73.54334193 -59.59092483 70.83718752 -59.76171875 66.09765625 C-59.43665805 58.85963793 -56.19814177 54.31971663 -51.32421875 49.09765625 C-46.99792673 45.80368527 -43.25045775 45.57401314 -38.01171875 45.41015625 C-37.27115234 45.37599609 -36.53058594 45.34183594 -35.76757812 45.30664062 C-33.95363711 45.22472071 -32.13895522 45.15949803 -30.32421875 45.09765625 C-30.06229736 44.25976562 -29.80037598 43.421875 -29.53051758 42.55859375 C-28.23418461 38.83934335 -26.68099901 35.2900259 -25.0234375 31.72265625 C-24.70518509 31.03510254 -24.38693268 30.34754883 -24.05903625 29.63916016 C-23.38761814 28.19283625 -22.71434285 26.74737318 -22.03930664 25.30273438 C-21.01662272 23.10817958 -20.007233 20.90781912 -18.99804688 18.70703125 C-18.34065546 17.29519468 -17.6824779 15.88372383 -17.0234375 14.47265625 C-16.57939827 13.4973999 -16.57939827 13.4973999 -16.12638855 12.50244141 C-14.0472766 8.10414024 -11.67382855 4.64535946 -8.32421875 1.09765625 C-5.26502487 0.07792496 -3.2000385 -0.01767977 0 0 Z M-6.32421875 24.09765625 C-7.62095477 26.63684631 -8.91169712 29.17879863 -10.19921875 31.72265625 C-10.56402344 32.43550781 -10.92882812 33.14835937 -11.3046875 33.8828125 C-13.32422802 37.88517462 -15.03232985 41.78682698 -16.32421875 46.09765625 C-10.92960922 48.36907079 -6.06264126 48.30178986 -0.32421875 48.09765625 C-1.69952392 40.02380587 -3.4245352 32.0636626 -5.32421875 24.09765625 C-5.65421875 24.09765625 -5.98421875 24.09765625 -6.32421875 24.09765625 Z M-46.32421875 61.09765625 C-47.21015873 64.23629329 -47.21015873 64.23629329 -47.32421875 67.09765625 C-43.11658651 65.59493045 -41.52144295 62.8643263 -39.32421875 59.09765625 C-39.32421875 58.43765625 -39.32421875 57.77765625 -39.32421875 57.09765625 C-42.61568346 57.09765625 -44.0356862 58.86780402 -46.32421875 61.09765625 Z " fill="#985524" transform="translate(78.32421875,34.90234375)"/>
<path d="M0 0 C2.56016973 0.33708901 4.90899698 0.5625 7.5 0.5625 C7.83 0.2325 8.16 -0.0975 8.5 -0.4375 C11.5 -0.5625 11.5 -0.5625 14.5 -0.4375 C17.10970222 2.17220222 16.03082564 8.98840104 16.16748047 12.53369141 C16.24855832 14.52705506 16.35258947 16.51944261 16.45703125 18.51171875 C17.0819251 34.35838584 17.0819251 34.35838584 12.08886719 40.21875 C8.95365909 42.87028432 5.22912698 43.58582718 1.18359375 43.53125 C-4.22479535 43.03228824 -7.87692196 42.18557804 -11.8125 38.25 C-13.5 35.5625 -13.5 35.5625 -13.25 32.75 C-13.0025 32.028125 -12.755 31.30625 -12.5 30.5625 C-9.125 30.375 -9.125 30.375 -5.5 30.5625 C-4.84 31.5525 -4.18 32.5425 -3.5 33.5625 C0.13170285 34.74034957 2.83461636 34.50502722 6.5 33.5625 C6.005 31.0875 6.005 31.0875 5.5 28.5625 C5.17 28.8925 4.84 29.2225 4.5 29.5625 C0.05224011 30.23698147 -4.06560652 30.3653698 -8.5 29.5625 C-12.62082766 26.51954007 -14.15926404 22.69503714 -14.953125 17.7265625 C-15.15929623 12.35138391 -14.65609661 8.07120944 -11.5 3.5625 C-7.8197925 0.22731195 -4.87808828 -0.65854192 0 0 Z M-4.375 8.5625 C-6.14629177 11.71146314 -6.04794453 15.03288329 -5.5 18.5625 C-4.51 20.0475 -4.51 20.0475 -3.5 21.5625 C-0.41781063 21.95388913 1.55453113 22.19968306 4.5 21.5625 C6.76051003 19.54507918 6.76051003 19.54507918 7.5 16.5625 C7.3733144 13.39535993 7.01056927 11.368662 5.3125 8.6875 C2.10937913 6.69935601 -1.07771786 6.80394953 -4.375 8.5625 Z " fill="#935428" transform="translate(132.5,67.4375)"/>
<path d="M0 0 C3.5625 0.1875 3.5625 0.1875 5.5625 2.1875 C6.078125 1.8575 6.59375 1.5275 7.125 1.1875 C11.58734376 -0.64320513 15.34176507 -0.25853776 19.8125 1.375 C23.65334066 3.90646316 25.07884328 5.97917592 26.06640625 10.48828125 C27.08996904 17.5885747 25.88212894 21.51475418 22.0625 27.5625 C20.09323541 29.69586997 18.3371897 30.13817519 15.4765625 30.3203125 C11.3773691 30.30632208 7.56089361 30.21934351 3.5625 29.1875 C3.8925 30.1775 4.2225 31.1675 4.5625 32.1875 C4.65517588 33.89382648 4.69248202 35.60366587 4.6875 37.3125 C4.69007813 38.20195313 4.69265625 39.09140625 4.6953125 40.0078125 C4.5625 42.1875 4.5625 42.1875 3.5625 43.1875 C0.89191149 43.32865161 -1.76182238 43.22997107 -4.4375 43.1875 C-5.42197844 33.16096576 -5.44811491 23.31461814 -5.0625 13.25 C-5.01939697 12.08227051 -4.97629395 10.91454102 -4.93188477 9.71142578 C-4.52241294 0.24667707 -4.52241294 0.24667707 0 0 Z M5.75 9.375 C4.17844017 11.77369658 3.69656633 13.30507395 3.5625 16.1875 C4.90376843 19.45500881 4.90376843 19.45500881 6.5625 22.1875 C11.94492628 22.75478185 11.94492628 22.75478185 16.625 20.6875 C18.07900718 16.81014751 17.47492396 14.22823466 16.5625 10.1875 C12.93243742 7.76745828 9.62053742 6.83913066 5.75 9.375 Z " fill="#945426" transform="translate(192.4375,66.8125)"/>
<path d="M0 0 C2.64749725 0.41855671 4.86265154 0.36280946 7.48828125 -0.17578125 C10.05078125 -0.67578125 10.05078125 -0.67578125 14.05078125 -0.67578125 C14.07543871 3.43594435 14.09362084 7.54764153 14.10571289 11.65942383 C14.11075205 13.05917103 14.11758341 14.45891295 14.1262207 15.85864258 C14.13830445 17.86667652 14.14347932 19.87474832 14.1484375 21.8828125 C14.15629272 23.69736938 14.15629272 23.69736938 14.16430664 25.54858398 C14.05078125 28.32421875 14.05078125 28.32421875 13.05078125 29.32421875 C9.61328125 29.51171875 9.61328125 29.51171875 6.05078125 29.32421875 C5.39078125 28.66421875 4.73078125 28.00421875 4.05078125 27.32421875 C3.06078125 27.98421875 2.07078125 28.64421875 1.05078125 29.32421875 C-3.52131179 30.07317113 -7.11932818 29.70842735 -11.32421875 27.76171875 C-15.58256565 23.80753949 -16.752882 20.09124951 -17.38671875 14.38671875 C-17.18088678 9.78682162 -15.67180344 6.02218424 -12.94921875 2.32421875 C-8.57087896 -1.03590248 -5.19586668 -0.83456926 0 0 Z M-7.94921875 11.32421875 C-8.41259078 15.72625304 -8.42960782 17.60363515 -5.94921875 21.32421875 C-0.742794 21.87599978 -0.742794 21.87599978 4.05078125 20.26171875 C5.65934647 17.14512364 5.47291506 14.76159406 5.05078125 11.32421875 C3.07626108 8.47213405 1.956025 7.5052675 -1.44921875 6.82421875 C-4.8544625 7.5052675 -5.97469858 8.47213405 -7.94921875 11.32421875 Z " fill="#8F542D" transform="translate(284.94921875,67.67578125)"/>
<path d="M0 0 C3.1875 0.125 3.1875 0.125 5.375 0.6875 C7.4050204 1.34693706 7.4050204 1.34693706 10.1875 0.125 C14.32255341 -0.26509938 16.71741708 -0.09673723 20.5 1.6875 C24.19388391 5.0377668 24.99023709 8.53631239 25.3581543 13.36450195 C25.41887616 15.74653396 25.41168276 18.11755096 25.375 20.5 C25.37435547 21.31855469 25.37371094 22.13710937 25.37304688 22.98046875 C25.32824248 28.98425752 25.32824248 28.98425752 24.1875 30.125 C20.6875 30.25 20.6875 30.25 17.1875 30.125 C15.03459053 27.97209053 15.81180521 23.19154262 15.6875 20.1875 C15.61869577 18.53237601 15.54596293 16.87740929 15.46875 15.22265625 C15.43845703 14.48539307 15.40816406 13.74812988 15.37695312 12.98852539 C15.28942135 11.03346298 15.28942135 11.03346298 14.1875 9.125 C11.8775 9.125 9.5675 9.125 7.1875 9.125 C4.62174336 12.95854228 4.9952398 16.88885675 5.125 21.3125 C5.18662415 23.92125588 5.2081479 26.51451572 5.1875 29.125 C4.1875 30.125 4.1875 30.125 2.33984375 30.22265625 C0.2890625 30.19010417 -1.76171875 30.15755208 -3.8125 30.125 C-4.90725293 26.8407412 -4.858236 24.62661866 -4.7265625 21.1796875 C-4.68273437 20.02082031 -4.63890625 18.86195312 -4.59375 17.66796875 C-4.5421875 16.45753906 -4.490625 15.24710938 -4.4375 14 C-4.39367187 12.78183594 -4.34984375 11.56367187 -4.3046875 10.30859375 C-3.89791748 0.17324078 -3.89791748 0.17324078 0 0 Z " fill="#935529" transform="translate(239.8125,66.875)"/>
<path d="M0 0 C1.010625 0.0825 2.02125 0.165 3.0625 0.25 C3.7225 1.24 4.3825 2.23 5.0625 3.25 C5.805 2.755 6.5475 2.26 7.3125 1.75 C10.0625 0.25 10.0625 0.25 14.0625 0.25 C14.0625 3.22 14.0625 6.19 14.0625 9.25 C12.01171875 9.67317708 9.9609375 10.09635417 7.91015625 10.51953125 C6.99556641 10.88111328 6.99556641 10.88111328 6.0625 11.25 C4.86002646 14.85742062 4.99204923 18.12701881 5.0625 21.875 C5.1083188 24.34005131 5.10959385 26.78345945 5.0625 29.25 C4.0625 30.25 4.0625 30.25 2.21484375 30.34765625 C0.1640625 30.31510417 -1.88671875 30.28255208 -3.9375 30.25 C-5.03225293 26.9657412 -4.983236 24.75161866 -4.8515625 21.3046875 C-4.80773437 20.14582031 -4.76390625 18.98695312 -4.71875 17.79296875 C-4.6671875 16.58253906 -4.615625 15.37210938 -4.5625 14.125 C-4.51867187 12.90683594 -4.47484375 11.68867187 -4.4296875 10.43359375 C-4.02469486 0.34252722 -4.02469486 0.34252722 0 0 Z " fill="#965425" transform="translate(157.9375,66.75)"/>
<path d="M0 0 C3.5 0.125 3.5 0.125 4.5 1.125 C4.88597783 5.59271474 4.97040295 10.08145907 5.125 14.5625 C5.1765625 15.82900391 5.228125 17.09550781 5.28125 18.40039062 C5.32507813 19.60759766 5.36890625 20.81480469 5.4140625 22.05859375 C5.4548291 23.17290771 5.4955957 24.28722168 5.53759766 25.43530273 C5.5 28.125 5.5 28.125 4.5 30.125 C-1.65234375 30.22265625 -1.65234375 30.22265625 -3.5 30.125 C-5.33034055 28.29465945 -4.63042797 25.39288008 -4.6328125 22.9375 C-4.63410156 21.68195313 -4.63539063 20.42640625 -4.63671875 19.1328125 C-4.63462402 18.47571289 -4.6325293 17.81861328 -4.63037109 17.14160156 C-4.62502234 15.13338665 -4.63031691 13.12539541 -4.63671875 11.1171875 C-4.63542969 9.86164063 -4.63414062 8.60609375 -4.6328125 7.3125 C-4.63112061 5.57033203 -4.63112061 5.57033203 -4.62939453 3.79296875 C-4.43352042 -0.24573359 -4.17496015 0.14910572 0 0 Z " fill="#96531F" transform="translate(226.5,66.875)"/>
<path d="M0 0 C5.75 -0.125 5.75 -0.125 8 1 C8.16729064 4.96907474 8.32788226 8.93835721 8.48217773 12.90795898 C8.53565802 14.25927079 8.59099194 15.61051052 8.64819336 16.96166992 C8.72993571 18.90002989 8.80453323 20.83868704 8.87890625 22.77734375 C8.9260376 23.94515381 8.97316895 25.11296387 9.02172852 26.31616211 C9 29 9 29 8 30 C6.1875 30.1328125 6.1875 30.1328125 4 30.125 C3.278125 30.12757812 2.55625 30.13015625 1.8125 30.1328125 C0 30 0 30 -1 29 C-1.09985642 27.02416172 -1.13080794 25.04476522 -1.1328125 23.06640625 C-1.13410156 21.86048828 -1.13539063 20.65457031 -1.13671875 19.41210938 C-1.13285156 18.14173828 -1.12898437 16.87136719 -1.125 15.5625 C-1.12886719 14.29599609 -1.13273438 13.02949219 -1.13671875 11.72460938 C-1.13542969 10.51740234 -1.13414062 9.31019531 -1.1328125 8.06640625 C-1.13168457 6.95209229 -1.13055664 5.83777832 -1.12939453 4.68969727 C-1 2 -1 2 0 0 Z " fill="#955426" transform="translate(175,67)"/>
<path d="M0 0 C3.74000084 0.20409282 7.15693741 -0.30694195 10.86328125 -0.84375 C10.92117131 2.61451342 10.95683946 6.07265293 10.98828125 9.53125 C11.00503906 10.51609375 11.02179688 11.5009375 11.0390625 12.515625 C11.04550781 13.45664063 11.05195313 14.39765625 11.05859375 15.3671875 C11.06906738 16.23649902 11.07954102 17.10581055 11.09033203 18.00146484 C10.7684473 21.05625481 8.98747746 22.03205379 6.86328125 24.15625 C3.73828125 23.78125 3.73828125 23.78125 0.86328125 23.15625 C1.19328125 22.49625 1.52328125 21.83625 1.86328125 21.15625 C2.85328125 21.15625 3.84328125 21.15625 4.86328125 21.15625 C4.86328125 20.49625 4.86328125 19.83625 4.86328125 19.15625 C5.52328125 19.15625 6.18328125 19.15625 6.86328125 19.15625 C6.53328125 18.49625 6.20328125 17.83625 5.86328125 17.15625 C5.53328125 17.15625 5.20328125 17.15625 4.86328125 17.15625 C4.86328125 13.52625 4.86328125 9.89625 4.86328125 6.15625 C-0.14440538 3.95782366 -0.14440538 3.95782366 -5.13671875 4.15625 C-7.92478094 5.65254592 -10.51443986 7.39069799 -13.13671875 9.15625 C-14.12671875 9.65125 -14.12671875 9.65125 -15.13671875 10.15625 C-14.81703342 6.63971139 -14.51429739 4.62193032 -12.26171875 1.84375 C-8.10200338 -1.45955338 -4.9245855 -0.69116989 0 0 Z " fill="#9B5421" transform="translate(136.13671875,69.84375)"/>
<path d="M0 0 C2.97 0.495 2.97 0.495 6 1 C6 6.61 6 12.22 6 18 C3.69 18.33 1.38 18.66 -1 19 C-1.33 18.67 -1.66 18.34 -2 18 C-5.33567476 17.92738667 -8.66032109 18.00391343 -11.99609375 18.0625 C-15 18 -15 18 -17 17 C-17 15.68 -17 14.36 -17 13 C-12.05 13 -7.1 13 -2 13 C-1.34 8.71 -0.68 4.42 0 0 Z " fill="#9A5422" transform="translate(291,77)"/>
<path d="M0 0 C2.31 0.33 4.62 0.66 7 1 C7.33 2.32 7.66 3.64 8 5 C8.66 5 9.32 5 10 5 C9.86892528 10.92219434 9.4560602 16.03137846 5.67578125 20.79296875 C2.45268089 23.11450258 -1.22867599 22.51763271 -5 22 C-5.33 21.01 -5.66 20.02 -6 19 C-5.34 19 -4.68 19 -4 19 C-4 18.34 -4 17.68 -4 17 C-3.195625 16.29875 -2.39125 15.5975 -1.5625 14.875 C1.80508945 11.0967289 1.74780315 8.95987142 2 4 C1.34 3.67 0.68 3.34 0 3 C0 2.01 0 1.02 0 0 Z " fill="#9A5523" transform="translate(209,74)"/>
<path d="M0 0 C2.64 0.66 5.28 1.32 8 2 C7.67 7.94 7.34 13.88 7 20 C3 21 3 21 0 20 C0 13.4 0 6.8 0 0 Z " fill="#9A541F" transform="translate(174,69)"/>
<path d="M0 0 C2.67361171 0.08734122 5.32388341 0.04613994 8 0 C7.01 0.495 7.01 0.495 6 1 C5.34444881 3.52733235 5.34444881 3.52733235 5 6 C2.7505194 6.33682062 0.50039296 6.66933001 -1.75 7 C-3.62945312 7.2784375 -3.62945312 7.2784375 -5.546875 7.5625 C-9 8 -9 8 -13 8 C-13 5.36 -13 2.72 -13 0 C-8.28161491 -0.84930932 -4.68546775 -0.86059612 0 0 Z " fill="#955326" transform="translate(250,69)"/>
<path d="M0 0 C2.33294775 -0.04241723 4.66702567 -0.04092937 7 0 C9.73176845 2.73176845 8.49744311 10.74022592 8.625 14.4375 C8.6765625 15.70400391 8.728125 16.97050781 8.78125 18.27539062 C8.82507813 19.48259766 8.86890625 20.68980469 8.9140625 21.93359375 C8.9548291 23.04790771 8.9955957 24.16222168 9.03759766 25.31030273 C9 28 9 28 8 30 C1.84765625 30.09765625 1.84765625 30.09765625 0 30 C-1 29 -1 29 -1.0625 25.9375 C-1.041875 24.968125 -1.02125 23.99875 -1 23 C0.98 22.67 2.96 22.34 5 22 C5.495 13.09 5.495 13.09 6 4 C3.05270463 2.84188612 3.05270463 2.84188612 0 3 C0 2.01 0 1.02 0 0 Z " fill="#965324" transform="translate(223,67)"/>
<path d="M0 0 C2.66735273 2.48952921 4.55746343 4.63408134 6 8 C4.02 8 2.04 8 0 8 C-0.33 11.3 -0.66 14.6 -1 18 C-2.32 18.33 -3.64 18.66 -5 19 C-6.25630289 12.71848553 -6.02092332 7.77811525 -3 2 C-2.01 1.34 -1.02 0.68 0 0 Z M4 2 C4.99 2 5.98 2 7 2 C7 2.66 7 3.32 7 4 C6.01 4 5.02 4 4 4 C4 3.34 4 2.68 4 2 Z " fill="#9B5222" transform="translate(275,68)"/>
<path d="M0 0 C0.66 1.32 1.32 2.64 2 4 C3.32 3.01 4.64 2.02 6 1 C6.33 1.33 6.66 1.66 7 2 C6.71269945 4.33944736 6.38063221 6.6739143 6 9 C8.475 9.99 8.475 9.99 11 11 C11 12.65 11 14.3 11 16 C6.67968759 15.83383414 4.63676742 15.65309479 1.5625 12.5 C-0.3849926 8.13761657 -0.37553789 4.69422357 0 0 Z " fill="#9B5423" transform="translate(119,78)"/>
<path d="M0 0 C2.64 0 5.28 0 8 0 C8.02465746 4.1117256 8.04283959 8.22342278 8.05493164 12.33520508 C8.0599708 13.73495228 8.06680216 15.1346942 8.07543945 16.53442383 C8.0875232 18.54245777 8.09269807 20.55052957 8.09765625 22.55859375 C8.10289307 23.76829834 8.10812988 24.97800293 8.11352539 26.22436523 C8 29 8 29 7 30 C4.66702567 30.04092937 2.33294775 30.04241723 0 30 C0 29.34 0 28.68 0 28 C1.98 28 3.96 28 6 28 C6 19.75 6 11.5 6 3 C3.69 3 1.38 3 -1 3 C-0.67 2.01 -0.34 1.02 0 0 Z " fill="#865533" transform="translate(291,67)"/>
<path d="M0 0 C0.66 0.33 1.32 0.66 2 1 C2.36075949 5.44936709 2.36075949 5.44936709 0.8125 7.8125 C-1.67237266 9.44052002 -3.08711432 9.50975499 -6 9 C-7.9375 7.3125 -7.9375 7.3125 -9 5 C-8.3125 2.3125 -8.3125 2.3125 -7 0 C-4.30919898 -1.34540051 -2.86443593 -0.71610898 0 0 Z " fill="#8C562E" transform="translate(182,56)"/>
<path d="M0 0 C1.134375 0.020625 2.26875 0.04125 3.4375 0.0625 C3.4375 0.3925 3.4375 0.7225 3.4375 1.0625 C1.1275 1.3925 -1.1825 1.7225 -3.5625 2.0625 C-3.52697021 2.79251221 -3.49144043 3.52252441 -3.45483398 4.2746582 C-3.29543858 7.64112111 -3.14765933 11.00800271 -3 14.375 C-2.94392578 15.52291016 -2.88785156 16.67082031 -2.83007812 17.85351562 C-2.52540605 25.02346509 -2.69583174 31.93666142 -3.5625 39.0625 C-2.94890625 38.87816406 -2.3353125 38.69382813 -1.703125 38.50390625 C1.01567796 37.94327717 2.1161882 38.65313212 4.4375 40.0625 C4.1075 41.0525 3.7775 42.0425 3.4375 43.0625 C0.7975 43.0625 -1.8425 43.0625 -4.5625 43.0625 C-5.54697844 33.03596576 -5.57311491 23.18961814 -5.1875 13.125 C-5.14439697 11.95727051 -5.10129395 10.78954102 -5.05688477 9.58642578 C-4.6456749 0.08150307 -4.6456749 0.08150307 0 0 Z " fill="#875330" transform="translate(192.5625,66.9375)"/>
<path d="M0 0 C0.66 0.66 1.32 1.32 2 2 C1.67028521 5.29714793 1.3773161 6.6226839 -1 9 C-3.375 9.4375 -3.375 9.4375 -6 9 C-10 4.89189189 -10 4.89189189 -10 2 C-6.32653229 -0.44897847 -4.33643601 -0.31537716 0 0 Z " fill="#91552A" transform="translate(230,56)"/>
<path d="M0 0 C1.4540625 0.0309375 1.4540625 0.0309375 2.9375 0.0625 C3.2675 0.7225 3.5975 1.3825 3.9375 2.0625 C1.6275 2.0625 -0.6825 2.0625 -3.0625 2.0625 C-3.0625 10.9725 -3.0625 19.8825 -3.0625 29.0625 C-1.0825 28.7325 0.8975 28.4025 2.9375 28.0625 C2.9375 23.4425 2.9375 18.8225 2.9375 14.0625 C3.2675 14.0625 3.5975 14.0625 3.9375 14.0625 C4.13139096 16.5413213 4.31790123 19.02030931 4.5 21.5 C4.55607422 22.20705078 4.61214844 22.91410156 4.66992188 23.64257812 C4.79940993 25.44677837 4.87271608 27.25481952 4.9375 29.0625 C3.9375 30.0625 3.9375 30.0625 2.08984375 30.16015625 C0.0390625 30.12760417 -2.01171875 30.09505208 -4.0625 30.0625 C-5.15725293 26.7782412 -5.108236 24.56411866 -4.9765625 21.1171875 C-4.93273437 19.95832031 -4.88890625 18.79945312 -4.84375 17.60546875 C-4.7921875 16.39503906 -4.740625 15.18460938 -4.6875 13.9375 C-4.64367187 12.71933594 -4.59984375 11.50117187 -4.5546875 10.24609375 C-4.14686956 0.08462999 -4.14686956 0.08462999 0 0 Z " fill="#855535" transform="translate(158.0625,66.9375)"/>
<path d="M0 0 C2.33294775 -0.04241723 4.66702567 -0.04092937 7 0 C9.73176845 2.73176845 8.49744311 10.74022592 8.625 14.4375 C8.6765625 15.70400391 8.728125 16.97050781 8.78125 18.27539062 C8.82507813 19.48259766 8.86890625 20.68980469 8.9140625 21.93359375 C8.9548291 23.04790771 8.9955957 24.16222168 9.03759766 25.31030273 C9 28 9 28 8 30 C5.36 30 2.72 30 0 30 C-0.33 29.34 -0.66 28.68 -1 28 C1.64 28.33 4.28 28.66 7 29 C6.83628906 28.21367188 6.67257813 27.42734375 6.50390625 26.6171875 C5.87344229 22.09153151 5.89284476 17.68670432 5.9375 13.125 C5.94201172 12.24585937 5.94652344 11.36671875 5.95117188 10.4609375 C5.96287663 8.30726197 5.98080931 6.15362183 6 4 C3.05270463 2.84188612 3.05270463 2.84188612 0 3 C0 2.01 0 1.02 0 0 Z " fill="#835637" transform="translate(223,67)"/>
<path d="M0 0 C5.75 -0.125 5.75 -0.125 8 1 C8.16729064 4.96907474 8.32788226 8.93835721 8.48217773 12.90795898 C8.53565802 14.25927079 8.59099194 15.61051052 8.64819336 16.96166992 C8.72993571 18.90002989 8.80453323 20.83868704 8.87890625 22.77734375 C8.9260376 23.94515381 8.97316895 25.11296387 9.02172852 26.31616211 C9 29 9 29 8 30 C5.32941149 30.14115161 2.67567762 30.04247107 0 30 C0 29.67 0 29.34 0 29 C2.31 29 4.62 29 7 29 C7 20.75 7 12.5 7 4 C5.35 4 3.7 4 2 4 C1.34 2.68 0.68 1.36 0 0 Z " fill="#825535" transform="translate(175,67)"/>
<path d="M0 0 C2.31 0 4.62 0 7 0 C7.33 2.31 7.66 4.62 8 7 C5.10765685 7.82638376 3.11257569 8 0 8 C0 5.36 0 2.72 0 0 Z " fill="#9C541F" transform="translate(237,69)"/>
<path d="M0 0 C1.99954746 -0.04254356 4.00041636 -0.04080783 6 0 C8.61667261 2.61667261 7.44323485 9.62714001 7.55761719 13.19091797 C7.62427696 15.22790534 7.7022186 17.26424098 7.78125 19.30078125 C7.82507813 20.58855469 7.86890625 21.87632813 7.9140625 23.203125 C7.9548291 24.38551758 7.9955957 25.56791016 8.03759766 26.78613281 C8.00366492 29.68672113 7.68416133 32.19064186 7 35 C6.67 35 6.34 35 6 35 C6 24.11 6 13.22 6 2 C3.69 2.33 1.38 2.66 -1 3 C-0.67 2.01 -0.34 1.02 0 0 Z " fill="#875534" transform="translate(141,67)"/>
<path d="M0 0 C6.625 0.75 6.625 0.75 10 3 C10.3984375 5.49609375 10.3984375 5.49609375 10.375 8.4375 C10.38273438 9.40558594 10.39046875 10.37367187 10.3984375 11.37109375 C10 14 10 14 8.73828125 15.8359375 C5.64207632 17.90935114 2.63105553 17.1785765 -1 17 C-1 16.67 -1 16.34 -1 16 C0.670625 15.87625 0.670625 15.87625 2.375 15.75 C5.95860815 15.38488285 5.95860815 15.38488285 7.5 13.3125 C8.16158261 10.25268043 7.78650761 8.01494584 7 5 C4.4345406 2.4345406 2.52313332 2.45953913 -1 2 C-0.67 1.34 -0.34 0.68 0 0 Z " fill="#7F4F31" transform="translate(131,73)"/>
<path d="M0 0 C1.65 0 3.3 0 5 0 C5 2.31 5 4.62 5 7 C2.69 7 0.38 7 -2 7 C-1.125 2.25 -1.125 2.25 0 0 Z " fill="#995423" transform="translate(166,68)"/>
<path d="M0 0 C0.66 0 1.32 0 2 0 C2.18175781 0.75023438 2.36351563 1.50046875 2.55078125 2.2734375 C4.18139393 8.91295784 5.96403115 15.47334807 8 22 C6 21 6 21 5.1484375 18.71484375 C4.76558594 17.34005859 4.76558594 17.34005859 4.375 15.9375 C4.11460938 15.01839844 3.85421875 14.09929687 3.5859375 13.15234375 C3.39257812 12.44207031 3.19921875 11.73179688 3 11 C2.34 11 1.68 11 1 11 C0.67 7.37 0.34 3.74 0 0 Z " fill="#8C5532" transform="translate(106,88)"/>
<path d="M0 0 C1.32 0 2.64 0 4 0 C3.79375 1.0725 3.5875 2.145 3.375 3.25 C2.97653715 7.23462851 3.29677218 7.69373423 5 11 C5.1821791 13.69104557 5.09006257 16.29812279 5 19 C3.0492171 16.07382565 2.28486538 13.97955419 1.375 10.625 C1.11460938 9.68914062 0.85421875 8.75328125 0.5859375 7.7890625 C0.02074867 5.09876365 -0.10954217 2.73855429 0 0 Z " fill="#8D5930" transform="translate(81,92)"/>
<path d="M0 0 C3.4375 2 3.4375 2 6 4 C5.67 4.66 5.34 5.32 5 6 C3.68 5.67 2.36 5.34 1 5 C1 4.01 1 3.02 1 2 C-3.455 2.495 -3.455 2.495 -8 3 C-8.33 2.34 -8.66 1.68 -9 1 C-5.89046621 -0.5547669 -3.43733239 -0.28644437 0 0 Z " fill="#875736" transform="translate(257,67)"/>
<path d="M0 0 C-0.33 3.63 -0.66 7.26 -1 11 C-1.33 11 -1.66 11 -2 11 C-2.66 8.03 -3.32 5.06 -4 2 C-6.31 1.34 -8.62 0.68 -11 0 C-7.07632508 -2.82504594 -4.32061114 -1.49559616 0 0 Z " fill="#86522D" transform="translate(292,75)"/>
<path d="M0 0 C1.98 0 3.96 0 6 0 C5.67 0.66 5.34 1.32 5 2 C4.01 2 3.02 2 2 2 C1.67 2.99 1.34 3.98 1 5 C1.99 5 2.98 5 4 5 C4.33 6.65 4.66 8.3 5 10 C4.34 10 3.68 10 3 10 C0.8125 7.8125 0.8125 7.8125 -1 5 C-0.75 2.1875 -0.75 2.1875 0 0 Z " fill="#885835" transform="translate(120,98)"/>
<path d="M0 0 C0.33 0.66 0.66 1.32 1 2 C4.3 2 7.6 2 11 2 C11 2.33 11 2.66 11 3 C8.41718164 3.22224251 5.83477813 3.42823488 3.25 3.625 C2.52039063 3.68945312 1.79078125 3.75390625 1.0390625 3.8203125 C-3.24842986 4.13213013 -5.03858853 3.98070573 -9 2 C-6.03 2 -3.06 2 0 2 C0 1.34 0 0.68 0 0 Z " fill="#824F27" transform="translate(69,91)"/>
<path d="M0 0 C0.33 0.99 0.66 1.98 1 3 C1.66 3 2.32 3 3 3 C3.33 3.99 3.66 4.98 4 6 C3.34 6.66 2.68 7.32 2 8 C1.01 8 0.02 8 -1 8 C-1.625 5.6875 -1.625 5.6875 -2 3 C-1.34 2.01 -0.68 1.02 0 0 Z " fill="#9F5020" transform="translate(177,55)"/>
<path d="M0 0 C0.33 0 0.66 0 1 0 C0.74213573 6.52396607 0.17832479 10.87818251 -4 16 C-4.66 15.34 -5.32 14.68 -6 14 C-4.625 11.5 -4.625 11.5 -3 9 C-2.34 9 -1.68 9 -1 9 C-0.67 6.03 -0.34 3.06 0 0 Z " fill="#855431" transform="translate(218,79)"/>
<path d="M0 0 C1.98 0 3.96 0 6 0 C6.33 1.32 6.66 2.64 7 4 C5.35 4 3.7 4 2 4 C1.34 2.68 0.68 1.36 0 0 Z " fill="#8C5328" transform="translate(175,67)"/>
<path d="M0 0 C-0.33 0.99 -0.66 1.98 -1 3 C-3.31 2.67 -5.62 2.34 -8 2 C-8 1.01 -8 0.02 -8 -1 C-4.37673261 -2.2077558 -3.35853631 -1.54311128 0 0 Z " fill="#874C20" transform="translate(197,107)"/>
<path d="M0 0 C0.66 0.33 1.32 0.66 2 1 C-0.97 5.95 -0.97 5.95 -4 11 C-5 7 -5 7 -5 5 C-4.34 5 -3.68 5 -3 5 C-2.5359375 4.0409375 -2.5359375 4.0409375 -2.0625 3.0625 C-1 1 -1 1 0 0 Z " fill="#875832" transform="translate(53,93)"/>
<path d="M0 0 C0.99 0 1.98 0 3 0 C4.33333333 2.66666667 5.66666667 5.33333333 7 8 C4 8 4 8 2.4375 6.625 C1.963125 6.08875 1.48875 5.5525 1 5 C0.34 4.34 -0.32 3.68 -1 3 C-0.67 2.01 -0.34 1.02 0 0 Z " fill="#90592C" transform="translate(194,83)"/>
<path d="M0 0 C1.32 0 2.64 0 4 0 C4.125 5.75 4.125 5.75 3 8 C2.34 8 1.68 8 1 8 C0.67 5.36 0.34 2.72 0 0 Z " fill="#94461E" transform="translate(244,68)"/>
<path d="M0 0 C0.33 0 0.66 0 1 0 C0.50269348 4.97306516 -0.55302334 8.63799813 -3 13 C-3.66 12.01 -4.32 11.02 -5 10 C-4.34 10 -3.68 10 -3 10 C-2.690625 8.72125 -2.38125 7.4425 -2.0625 6.125 C-1.52394756 3.89898325 -1.0263 2.05260001 0 0 Z " fill="#8F5837" transform="translate(66,66)"/>
<path d="M0 0 C0.99 0.33 1.98 0.66 3 1 C2.67 4.96 2.34 8.92 2 13 C1.34 12.67 0.68 12.34 0 12 C0 8.04 0 4.08 0 0 Z " fill="#B53316" transform="translate(174,69)"/>
<path d="M0 0 C2.31 0 4.62 0 7 0 C5.35 1.65 3.7 3.3 2 5 C1.01 4.01 0.02 3.02 -1 2 C-0.67 1.34 -0.34 0.68 0 0 Z " fill="#9A5018" transform="translate(290,70)"/>
<path d="M0 0 C6.52307692 0.61538462 6.52307692 0.61538462 8.9375 2.5625 C9.288125 3.036875 9.63875 3.51125 10 4 C9.29875 3.855625 8.5975 3.71125 7.875 3.5625 C4.92443859 2.98521625 1.96729849 2.48304859 -1 2 C-0.67 1.34 -0.34 0.68 0 0 Z " fill="#8D5735" transform="translate(131,73)"/>
<path d="M0 0 C2.31 0 4.62 0 7 0 C6.67 1.32 6.34 2.64 6 4 C5.01 3.67 4.02 3.34 3 3 C2.01 3 1.02 3 0 3 C0 2.01 0 1.02 0 0 Z " fill="#8F5731" transform="translate(223,67)"/>
<path d="M0 0 C0.33 0 0.66 0 1 0 C1.3125 2.3125 1.3125 2.3125 1 5 C-1.5 6.8125 -1.5 6.8125 -4 8 C-2.87548273 5.0280615 -1.77706209 2.66559313 0 0 Z " fill="#895B36" transform="translate(68,38)"/>
<path d="M0 0 C2.0625 0.4375 2.0625 0.4375 4 1 C-0.10457614 3.98514628 -2.97745369 4.2954439 -8 4 C-8 3.67 -8 3.34 -8 3 C-6.865625 2.690625 -5.73125 2.38125 -4.5625 2.0625 C-1.21224901 1.37075469 -1.21224901 1.37075469 0 0 Z " fill="#885832" transform="translate(38,112)"/>
<path d="M0 0 C1.32 1.32 2.64 2.64 4 4 C2.35 4 0.7 4 -1 4 C-0.67 4.99 -0.34 5.98 0 7 C-0.66 7 -1.32 7 -2 7 C-2 5.35 -2 3.7 -2 2 C-1.34 2 -0.68 2 0 2 C0 1.34 0 0.68 0 0 Z " fill="#81461C" transform="translate(197,92)"/>
<path d="M0 0 C2.475 0.495 2.475 0.495 5 1 C5.33 2.32 5.66 3.64 6 5 C4.35 5.33 2.7 5.66 1 6 C0.67 4.02 0.34 2.04 0 0 Z " fill="#8D4A18" transform="translate(289,90)"/>
<path d="M0 0 C0.99 0.33 1.98 0.66 3 1 C1.71502463 3.56995074 0.50087627 3.90434463 -2.0625 5.125 C-2.79597656 5.47820312 -3.52945313 5.83140625 -4.28515625 6.1953125 C-4.85105469 6.46085937 -5.41695312 6.72640625 -6 7 C-5.67 6.01 -5.34 5.02 -5 4 C-4.34 4 -3.68 4 -3 4 C-3 3.34 -3 2.68 -3 2 C-2.01 1.34 -1.02 0.68 0 0 Z " fill="#895027" transform="translate(38,89)"/>
<path d="M0 0 C1 3 1 3 -0.3125 6.625 C-2 10 -2 10 -4 11 C-3.52269162 9.5410574 -3.04308958 8.08286504 -2.5625 6.625 C-2.29566406 5.81289063 -2.02882812 5.00078125 -1.75390625 4.1640625 C-1 2 -1 2 0 0 Z " fill="#915234" transform="translate(63,46)"/>
<path d="M0 0 C0.33 0.66 0.66 1.32 1 2 C-0.32 3.65 -1.64 5.3 -3 7 C-3.99 6.67 -4.98 6.34 -6 6 C-4 4 -2 2 0 0 Z " fill="#8B5B36" transform="translate(146,102)"/>
<path d="M0 0 C1.32 0 2.64 0 4 0 C4 0.66 4 1.32 4 2 C3.34 2 2.68 2 2 2 C1.67 3.32 1.34 4.64 1 6 C0.34 4.35 -0.32 2.7 -1 1 C-0.67 0.67 -0.34 0.34 0 0 Z " fill="#92552A" transform="translate(140,94)"/>
<path d="M0 0 C0.66 0 1.32 0 2 0 C2.33 0.99 2.66 1.98 3 3 C3.66 3 4.32 3 5 3 C4.67 3.99 4.34 4.98 4 6 C3.01 6 2.02 6 1 6 C0.67 4.02 0.34 2.04 0 0 Z " fill="#8D592F" transform="translate(73,61)"/>
</svg>
